<svg viewBox="0 0 45 33" xmlns="http://www.w3.org/2000/svg"><g fill="none" fill-rule="nonzero"><path fill="#EBEBEB" d="M22.235 0l22.5 10.738v9.56L23.691 33 .265 20.429v-9.56z"/><path fill="#D4D3D3" d="M23.691 23.048V33L.265 20.429v-9.56zM32.03 3.798C31.5 1.702 27.264 0 22.367 0c-5.294 0-9.794 1.833-9.927 4.321 0 0 .265 6.155.265 6.286 0 3.012 4.765 5.107 9.794 5.107 5.162 0 9.794-2.095 9.794-5.107V6.024s.265-1.44-.265-2.226z"/><path d="M13.103 4.976C13.235 2.62 17.338.655 22.368.655s9.132 1.964 9.264 4.321c.133 2.488-3.97 4.453-9.264 4.453-5.294 0-9.397-2.096-9.265-4.453z" fill="#EBEBEB"/></g></svg>